<svg xmlns="http://www.w3.org/2000/svg" viewBox="0 0 360 92" role="img" aria-labelledby="title desc">
  <title id="title">Varianz by Operion</title>
  <desc id="desc">Connected data trajectories form a V inside open operational-system arcs.</desc>
  <g transform="translate(8 8) scale(1.58)" fill="none" stroke-linecap="round" stroke-linejoin="round">
    <path d="M8.2 14.1A19 19 0 0 1 34.9 7.8M7 18.2A19 19 0 0 0 19.1 41" stroke="#F2F0E9" stroke-width="2.1"/>
    <path d="M28.4 41A19 19 0 0 0 42 20" stroke="#78E57E" stroke-width="2.1"/>
    <path d="M10.5 15.2 23.5 39.2M16.8 9.5 25.4 26.2" stroke="#F2F0E9" stroke-width="2.35"/>
    <path d="M25.4 26.2 39.2 9.2" stroke="#78E57E" stroke-width="2.35"/>
    <g fill="#090909" stroke-width="2">
      <circle cx="10.5" cy="15.2" r="2.8" stroke="#F2F0E9"/><circle cx="16.8" cy="9.5" r="2.8" stroke="#F2F0E9"/><circle cx="23.5" cy="39.2" r="2.8" stroke="#F2F0E9"/>
      <circle cx="25.4" cy="26.2" r="2.8" stroke="#78E57E"/><circle cx="39.2" cy="9.2" r="2.8" stroke="#78E57E"/>
    </g>
  </g>
  <text x="98" y="47" fill="#F2F0E9" font-family="Arial,Helvetica,sans-serif" font-size="27" font-weight="500" letter-spacing="7">VARIANZ</text>
  <text x="100" y="69" fill="#AAB7B1" font-family="Arial,Helvetica,sans-serif" font-size="9" letter-spacing="2">by</text>
  <text x="121" y="69" fill="#78E57E" font-family="Arial,Helvetica,sans-serif" font-size="9" font-weight="600" letter-spacing="4">OPERION</text>
</svg>
